<mxfile host="app.diagrams.net" modified="2021-05-28T15:41:48.643Z" agent="5.0 (Windows NT 10.0; Win64; x64) AppleWebKit/537.36 (KHTML, like Gecko) Chrome/90.0.4430.212 Safari/537.36" etag="SuyRSiqaQv49ALAa8Gpg" version="14.6.9" type="github">
  <diagram id="zndAgrbTjPdFZoj1QIVZ" name="Page-1">
    <mxGraphModel dx="1117" dy="670" grid="1" gridSize="10" guides="1" tooltips="1" connect="1" arrows="1" fold="1" page="1" pageScale="1" pageWidth="1169" pageHeight="827" math="0" shadow="0">
      <root>
        <mxCell id="0" />
        <mxCell id="1" parent="0" />
        <mxCell id="D1OwaZJVm97ElIExEvXW-1" value="CISCO 887" style="rounded=0;whiteSpace=wrap;html=1;" vertex="1" parent="1">
          <mxGeometry x="600" y="350" width="120" height="210" as="geometry" />
        </mxCell>
        <mxCell id="D1OwaZJVm97ElIExEvXW-9" style="edgeStyle=orthogonalEdgeStyle;rounded=0;orthogonalLoop=1;jettySize=auto;html=1;exitX=0;exitY=0.25;exitDx=0;exitDy=0;entryX=1;entryY=0.5;entryDx=0;entryDy=0;" edge="1" parent="1" source="D1OwaZJVm97ElIExEvXW-4" target="D1OwaZJVm97ElIExEvXW-7">
          <mxGeometry relative="1" as="geometry" />
        </mxCell>
        <mxCell id="D1OwaZJVm97ElIExEvXW-2" value="0" style="rounded=1;whiteSpace=wrap;html=1;" vertex="1" parent="1">
          <mxGeometry x="580" y="390" width="20" height="20" as="geometry" />
        </mxCell>
        <mxCell id="D1OwaZJVm97ElIExEvXW-10" style="edgeStyle=orthogonalEdgeStyle;rounded=0;orthogonalLoop=1;jettySize=auto;html=1;entryX=1;entryY=0.5;entryDx=0;entryDy=0;" edge="1" parent="1" target="D1OwaZJVm97ElIExEvXW-8">
          <mxGeometry relative="1" as="geometry">
            <mxPoint x="581" y="483" as="sourcePoint" />
          </mxGeometry>
        </mxCell>
        <mxCell id="D1OwaZJVm97ElIExEvXW-4" value="1" style="rounded=1;whiteSpace=wrap;html=1;" vertex="1" parent="1">
          <mxGeometry x="581" y="434" width="20" height="20" as="geometry" />
        </mxCell>
        <mxCell id="D1OwaZJVm97ElIExEvXW-5" value="2" style="rounded=1;whiteSpace=wrap;html=1;" vertex="1" parent="1">
          <mxGeometry x="582" y="474" width="20" height="20" as="geometry" />
        </mxCell>
        <mxCell id="D1OwaZJVm97ElIExEvXW-6" value="3" style="rounded=1;whiteSpace=wrap;html=1;" vertex="1" parent="1">
          <mxGeometry x="582" y="513" width="20" height="20" as="geometry" />
        </mxCell>
        <mxCell id="D1OwaZJVm97ElIExEvXW-25" style="edgeStyle=orthogonalEdgeStyle;rounded=0;orthogonalLoop=1;jettySize=auto;html=1;exitX=0;exitY=0.5;exitDx=0;exitDy=0;entryX=0.4;entryY=0.1;entryDx=0;entryDy=0;entryPerimeter=0;" edge="1" parent="1" source="D1OwaZJVm97ElIExEvXW-7" target="D1OwaZJVm97ElIExEvXW-24">
          <mxGeometry relative="1" as="geometry">
            <Array as="points">
              <mxPoint x="88" y="390" />
            </Array>
          </mxGeometry>
        </mxCell>
        <mxCell id="D1OwaZJVm97ElIExEvXW-7" value="8902-3" style="rounded=1;whiteSpace=wrap;html=1;" vertex="1" parent="1">
          <mxGeometry x="270" y="360" width="120" height="60" as="geometry" />
        </mxCell>
        <mxCell id="D1OwaZJVm97ElIExEvXW-26" style="edgeStyle=orthogonalEdgeStyle;rounded=0;orthogonalLoop=1;jettySize=auto;html=1;exitX=0;exitY=0.5;exitDx=0;exitDy=0;entryX=0.31;entryY=0.8;entryDx=0;entryDy=0;entryPerimeter=0;" edge="1" parent="1" source="D1OwaZJVm97ElIExEvXW-8" target="D1OwaZJVm97ElIExEvXW-24">
          <mxGeometry relative="1" as="geometry">
            <Array as="points">
              <mxPoint x="270" y="500" />
              <mxPoint x="90" y="500" />
              <mxPoint x="90" y="468" />
            </Array>
          </mxGeometry>
        </mxCell>
        <mxCell id="D1OwaZJVm97ElIExEvXW-8" value="8902-4" style="rounded=1;whiteSpace=wrap;html=1;" vertex="1" parent="1">
          <mxGeometry x="270" y="453" width="120" height="60" as="geometry" />
        </mxCell>
        <mxCell id="D1OwaZJVm97ElIExEvXW-18" style="edgeStyle=orthogonalEdgeStyle;rounded=0;orthogonalLoop=1;jettySize=auto;html=1;exitX=1;exitY=0.5;exitDx=0;exitDy=0;" edge="1" parent="1" source="D1OwaZJVm97ElIExEvXW-11" target="D1OwaZJVm97ElIExEvXW-15">
          <mxGeometry relative="1" as="geometry" />
        </mxCell>
        <mxCell id="D1OwaZJVm97ElIExEvXW-11" value="5928-2" style="rounded=1;whiteSpace=wrap;html=1;" vertex="1" parent="1">
          <mxGeometry x="810" y="360" width="120" height="60" as="geometry" />
        </mxCell>
        <mxCell id="D1OwaZJVm97ElIExEvXW-13" style="edgeStyle=orthogonalEdgeStyle;rounded=0;orthogonalLoop=1;jettySize=auto;html=1;exitX=0;exitY=0.5;exitDx=0;exitDy=0;entryX=0;entryY=0.5;entryDx=0;entryDy=0;" edge="1" parent="1" source="D1OwaZJVm97ElIExEvXW-12" target="D1OwaZJVm97ElIExEvXW-6">
          <mxGeometry relative="1" as="geometry">
            <mxPoint x="550" y="520" as="targetPoint" />
            <Array as="points">
              <mxPoint x="800" y="500" />
              <mxPoint x="800" y="600" />
              <mxPoint x="530" y="600" />
              <mxPoint x="530" y="523" />
            </Array>
          </mxGeometry>
        </mxCell>
        <mxCell id="D1OwaZJVm97ElIExEvXW-17" style="edgeStyle=orthogonalEdgeStyle;rounded=0;orthogonalLoop=1;jettySize=auto;html=1;exitX=1;exitY=0.5;exitDx=0;exitDy=0;" edge="1" parent="1" source="D1OwaZJVm97ElIExEvXW-12" target="D1OwaZJVm97ElIExEvXW-16">
          <mxGeometry relative="1" as="geometry" />
        </mxCell>
        <mxCell id="D1OwaZJVm97ElIExEvXW-12" value="5928-1" style="rounded=1;whiteSpace=wrap;html=1;" vertex="1" parent="1">
          <mxGeometry x="810" y="470" width="120" height="60" as="geometry" />
        </mxCell>
        <mxCell id="D1OwaZJVm97ElIExEvXW-15" value="" style="outlineConnect=0;fontColor=#232F3E;gradientColor=none;fillColor=#5A30B5;strokeColor=none;dashed=0;verticalLabelPosition=bottom;verticalAlign=top;align=center;html=1;fontSize=12;fontStyle=0;aspect=fixed;pointerEvents=1;shape=mxgraph.aws4.router;" vertex="1" parent="1">
          <mxGeometry x="1010" y="351" width="78" height="78" as="geometry" />
        </mxCell>
        <mxCell id="D1OwaZJVm97ElIExEvXW-16" value="" style="outlineConnect=0;fontColor=#232F3E;gradientColor=none;fillColor=#5A30B5;strokeColor=none;dashed=0;verticalLabelPosition=bottom;verticalAlign=top;align=center;html=1;fontSize=12;fontStyle=0;aspect=fixed;pointerEvents=1;shape=mxgraph.aws4.router;" vertex="1" parent="1">
          <mxGeometry x="1010" y="461" width="78" height="78" as="geometry" />
        </mxCell>
        <mxCell id="D1OwaZJVm97ElIExEvXW-19" value="TT ROUTER 1" style="text;html=1;align=center;verticalAlign=middle;resizable=0;points=[];autosize=1;strokeColor=none;" vertex="1" parent="1">
          <mxGeometry x="1005" y="550" width="90" height="20" as="geometry" />
        </mxCell>
        <mxCell id="D1OwaZJVm97ElIExEvXW-20" value="TT ROUTER 2" style="text;html=1;align=center;verticalAlign=middle;resizable=0;points=[];autosize=1;strokeColor=none;" vertex="1" parent="1">
          <mxGeometry x="1005" y="320" width="90" height="20" as="geometry" />
        </mxCell>
        <mxCell id="D1OwaZJVm97ElIExEvXW-21" value="192.168.205.2/30" style="text;html=1;align=center;verticalAlign=middle;resizable=0;points=[];autosize=1;strokeColor=none;" vertex="1" parent="1">
          <mxGeometry x="415" y="370" width="110" height="20" as="geometry" />
        </mxCell>
        <mxCell id="D1OwaZJVm97ElIExEvXW-22" value="192.168.204.2/30" style="text;html=1;align=center;verticalAlign=middle;resizable=0;points=[];autosize=1;strokeColor=none;" vertex="1" parent="1">
          <mxGeometry x="415" y="420" width="110" height="20" as="geometry" />
        </mxCell>
        <mxCell id="D1OwaZJVm97ElIExEvXW-23" value="195.175.234.116/29 (VLAN 102)" style="text;html=1;align=center;verticalAlign=middle;resizable=0;points=[];autosize=1;strokeColor=none;" vertex="1" parent="1">
          <mxGeometry x="545" y="600" width="190" height="20" as="geometry" />
        </mxCell>
        <mxCell id="D1OwaZJVm97ElIExEvXW-24" value="WIMAX" style="ellipse;shape=cloud;whiteSpace=wrap;html=1;" vertex="1" parent="1">
          <mxGeometry x="40" y="404" width="120" height="80" as="geometry" />
        </mxCell>
      </root>
    </mxGraphModel>
  </diagram>
</mxfile>
